<svg width="1080" height="1080" viewBox="0 0 1080 1080" fill="none" xmlns="http://www.w3.org/2000/svg">
<rect width="1080" height="1080" fill="#FFA113"/>
<path d="M286.038 603.971C321.406 603.971 350.076 575.289 350.076 539.906C350.076 504.523 321.406 475.841 286.038 475.841C250.672 475.841 222 504.523 222 539.906C222 575.289 250.672 603.971 286.038 603.971Z" fill="#C6003B"/>
<path d="M793.962 603.971C829.329 603.971 858 575.289 858 539.906C858 504.523 829.329 475.841 793.962 475.841C758.596 475.841 729.924 504.523 729.924 539.906C729.924 575.289 758.596 603.971 793.962 603.971Z" fill="#007B3A"/>
<path d="M401.357 612.811C412.116 626.937 428.028 634 449.096 634C460.303 634 469.716 631.982 477.336 627.946C484.956 623.91 491.232 617.52 496.163 608.775C501.318 599.806 505.576 588.371 508.938 574.469H515.662L516.67 629.291H517.272H559.702H571.398V548.572C571.398 538.034 572.743 528.504 575.432 519.984C578.122 511.463 582.156 504.625 587.535 499.468C593.138 494.311 600.198 491.732 608.715 491.732C619.025 491.732 626.757 495.992 631.912 504.513C637.291 512.809 639.98 526.15 639.98 544.536V629.291H694.443V538.482C694.443 506.643 688.952 483.436 677.97 468.862C667.212 454.287 651.411 447 630.567 447C619.361 447 609.611 449.13 601.319 453.39C593.026 457.426 586.19 463.704 580.811 472.225C575.432 480.745 571.286 491.284 568.372 503.84H561.649L560.976 451.709H559.702H517.272H505.576V530.074C505.576 538.594 504.792 546.442 503.223 553.617C501.878 560.792 499.637 567.182 496.499 572.788C493.585 578.169 489.887 582.429 485.405 585.568C481.146 588.483 475.991 589.941 469.94 589.941C459.854 589.941 452.346 585.905 447.415 577.833C442.485 569.537 440.019 557.092 440.019 540.5V451.709H385.557V547.563C385.557 576.712 390.824 598.461 401.357 612.811Z" fill="#1C1C1C"/>
</svg>
